<?xml version="1.0" encoding="utf-8"?>
<!-- Generator: Adobe Illustrator 27.8.1, SVG Export Plug-In . SVG Version: 6.00 Build 0)  -->
<svg version="1.1" id="Layer_1" xmlns="http://www.w3.org/2000/svg" xmlns:xlink="http://www.w3.org/1999/xlink" x="0px" y="0px"
	 viewBox="0 0 646.4 100.5" style="enable-background:new 0 0 646.4 100.5;" xml:space="preserve">
<style type="text/css">
	.st0{fill:#1A1A1A;}
	.st1{fill:#D80F2C;}
	.st2{fill:#FFFFFF;}
</style>
<g id="Layer_2_00000146457420205654694370000009984357718745195956_">
	<g id="Layer_1-2">
		<path class="st0" d="M200.8,1.5h28.5l-16.1,75.7h52.4l-13,21.8h-72.4L200.8,1.5z"/>
		<path class="st0" d="M318.3,1.5h30.1l13.1,76.1L356.8,99h-21.2l-3.5-20.7h-29.7L290,99h-29.7L318.3,1.5z M332.2,57.8l-4.9-28.6
			l-17,28.6H332.2z"/>
		<path class="st0" d="M383.9,1.5h50.7c9.1,0,16.1,2.3,21,7s7.4,10.9,7.4,18.8c0,3-0.3,6-0.9,8.9c-1.4,6.4-4.3,12.3-8.6,17.2
			c-4.3,5-9.6,8.9-15.6,11.6c0.9,0.8,1.6,1.9,2.1,3c0.7,1.8,1.2,3.6,1.7,5.4l5.9,25.6H418l-5.5-23.5c-0.3-1.5-1.1-2.8-2.2-3.9
			c-1.4-0.9-3-1.3-4.6-1.1h-8l-6,28.5h-28.5L383.9,1.5z M417.4,48.7c3.7,0.1,7.3-1,10.3-3.3c2.8-2.4,4.8-5.7,5.5-9.3
			c0.3-1.6,0.5-3.2,0.6-4.9c0.2-2.3-0.7-4.5-2.4-6c-1.6-1.3-4.1-2-7.6-2h-15.9l-5.5,25.4L417.4,48.7z"/>
		<path class="st0" d="M475,90.9c-7.9-6.4-11.9-15.5-11.9-27.3c0-4.2,0.5-8.3,1.4-12.4C471.7,17.1,493.8,0,530.7,0
			C542.2,0,552,1.4,560,4.2l-5.3,24.4c-7.1-2.9-16.2-4.4-27.2-4.4c-9,0-16.4,2.2-22.3,6.6s-9.7,11.2-11.7,20.4
			c-0.8,3.4-1.3,6.8-1.4,10.3c0,5.3,1.6,9,4.7,11.4s8.3,3.5,15.5,3.5c4.9,0,9.7-0.7,14.4-2l3-14.2h-19.4l3.8-17.6h43.2l-10.5,49.1
			c-5.4,2.9-11.2,5-17.1,6.4c-7.4,1.7-15,2.6-22.6,2.5C493.7,100.5,482.9,97.3,475,90.9z"/>
		<path class="st0" d="M572.5,1.5h73.9l-4.5,21.8h-45.4L593,39.2h39.8L628,61.3h-39.8l-3.3,15.9h45.4L625.8,99h-73.9L572.5,1.5z"/>
		<polygon class="st1" points="173.1,99 0,99 0,1.5 192.7,1.5 		"/>
		<path class="st2" d="M18.1,16.5h16.7l18.3,37.4l18.3-37.4H88V84H71.1V45.2L57.7,72.5h-9.3L35,45.2V84H18.1V16.5z"/>
		<path class="st2" d="M114.2,50.1L90.3,16.5h20.1l13.9,20.1l14-20.1h20.1l-23.9,33.6l24.6,34H139l-14.6-20.5L109.9,84H89.6
			L114.2,50.1z"/>
	</g>
</g>
</svg>
